<?xml version="1.0" standalone="no"?>
<!DOCTYPE svg PUBLIC "-//W3C//DTD SVG 20010904//EN"
 "http://www.w3.org/TR/2001/REC-SVG-20010904/DTD/svg10.dtd">
<svg version="1.0" xmlns="http://www.w3.org/2000/svg"
 width="201.000000pt" height="201.000000pt" viewBox="0 0 201.000000 201.000000"
 preserveAspectRatio="xMidYMid meet">
<metadata>
Created by potrace 1.14, written by Peter Selinger 2001-2017
</metadata>
<g transform="translate(0.000000,201.000000) scale(0.100000,-0.100000)"
fill="#000000" stroke="none">
<path d="M463 1535 c-109 -30 -183 -89 -198 -154 -16 -74 56 -162 162 -197 79
-26 237 -26 312 0 58 20 123 72 147 117 40 77 -10 160 -129 214 -73 34 -213
43 -294 20z m275 -65 c60 -26 112 -79 112 -115 0 -35 -52 -89 -112 -116 -45
-20 -69 -23 -158 -23 -89 0 -113 3 -158 23 -60 27 -112 81 -112 116 0 29 42
80 84 102 90 48 249 54 344 13z"/>
<path d="M1070 1200 l0 -220 360 0 360 0 0 220 0 220 -360 0 -360 0 0 -220z
m670 0 l0 -170 -310 0 -310 0 0 170 0 170 310 0 310 0 0 -170z"/>
<path d="M722 848 c-7 -7 -12 -24 -12 -40 l0 -27 -117 -3 -118 -3 0 -100 0
-100 117 -3 117 -3 3 -31 c6 -61 24 -57 166 37 73 48 132 93 132 100 0 11
-252 185 -269 185 -4 0 -12 -5 -19 -12z m156 -133 l60 -39 -86 -58 -87 -58 -5
27 -5 28 -118 3 -117 3 0 54 0 55 120 0 120 0 0 31 0 31 29 -19 c15 -10 55
-36 89 -58z"/>
</g>
</svg>
